<mxfile host="Electron" modified="2024-09-17T15:25:36.512Z" agent="Mozilla/5.0 (Windows NT 10.0; Win64; x64) AppleWebKit/537.36 (KHTML, like Gecko) draw.io/24.5.3 Chrome/124.0.6367.207 Electron/30.0.6 Safari/537.36" etag="fkWYzTqsEZ2ThKyJqreQ" version="24.5.3" type="device" pages="2">
  <diagram name="Usuario" id="6QKY69nxWDeHO899FN7G">
    <mxGraphModel dx="603" dy="359" grid="1" gridSize="10" guides="1" tooltips="1" connect="1" arrows="1" fold="1" page="1" pageScale="1" pageWidth="827" pageHeight="1169" math="0" shadow="0">
      <root>
        <mxCell id="eqbEw0cFiS0CcYSaoT_Q-0" />
        <mxCell id="eqbEw0cFiS0CcYSaoT_Q-1" parent="eqbEw0cFiS0CcYSaoT_Q-0" />
        <mxCell id="87FNjP04pHy1DOySvpu--11" style="rounded=0;orthogonalLoop=1;jettySize=auto;html=1;entryX=0;entryY=0.5;entryDx=0;entryDy=0;endArrow=none;endFill=0;" parent="eqbEw0cFiS0CcYSaoT_Q-1" source="87FNjP04pHy1DOySvpu--14" target="87FNjP04pHy1DOySvpu--21" edge="1">
          <mxGeometry relative="1" as="geometry" />
        </mxCell>
        <mxCell id="87FNjP04pHy1DOySvpu--12" style="rounded=0;orthogonalLoop=1;jettySize=auto;html=1;endArrow=none;endFill=0;" parent="eqbEw0cFiS0CcYSaoT_Q-1" source="87FNjP04pHy1DOySvpu--14" target="87FNjP04pHy1DOySvpu--15" edge="1">
          <mxGeometry relative="1" as="geometry" />
        </mxCell>
        <mxCell id="87FNjP04pHy1DOySvpu--13" style="rounded=0;orthogonalLoop=1;jettySize=auto;html=1;entryX=0;entryY=0.5;entryDx=0;entryDy=0;endArrow=none;endFill=0;" parent="eqbEw0cFiS0CcYSaoT_Q-1" source="87FNjP04pHy1DOySvpu--14" target="87FNjP04pHy1DOySvpu--20" edge="1">
          <mxGeometry relative="1" as="geometry" />
        </mxCell>
        <mxCell id="87FNjP04pHy1DOySvpu--14" value="Usuario" style="shape=umlActor;verticalLabelPosition=bottom;verticalAlign=top;html=1;" parent="eqbEw0cFiS0CcYSaoT_Q-1" vertex="1">
          <mxGeometry x="10" y="185" width="30" height="60" as="geometry" />
        </mxCell>
        <mxCell id="87FNjP04pHy1DOySvpu--15" value="Iniciar sesión" style="ellipse;whiteSpace=wrap;html=1;" parent="eqbEw0cFiS0CcYSaoT_Q-1" vertex="1">
          <mxGeometry x="180" y="180" width="120" height="70" as="geometry" />
        </mxCell>
        <mxCell id="87FNjP04pHy1DOySvpu--16" value="&lt;span style=&quot;color: rgb(0, 0, 0); font-family: Helvetica; font-size: 11px; font-style: normal; font-variant-ligatures: normal; font-variant-caps: normal; font-weight: 400; letter-spacing: normal; orphans: 2; text-align: center; text-indent: 0px; text-transform: none; widows: 2; word-spacing: 0px; -webkit-text-stroke-width: 0px; white-space: nowrap; background-color: rgb(255, 255, 255); text-decoration-thickness: initial; text-decoration-style: initial; text-decoration-color: initial; display: inline !important; float: none;&quot;&gt;&amp;lt;&amp;lt;include&amp;gt;&amp;gt;&lt;/span&gt;" style="html=1;whiteSpace=wrap;fillColor=none;strokeColor=none;rotation=-24.6;" parent="eqbEw0cFiS0CcYSaoT_Q-1" vertex="1">
          <mxGeometry x="330" y="136" width="60" height="15" as="geometry" />
        </mxCell>
        <mxCell id="87FNjP04pHy1DOySvpu--17" value="&lt;span style=&quot;color: rgb(0, 0, 0); font-family: Helvetica; font-size: 11px; font-style: normal; font-variant-ligatures: normal; font-variant-caps: normal; font-weight: 400; letter-spacing: normal; orphans: 2; text-align: center; text-indent: 0px; text-transform: none; widows: 2; word-spacing: 0px; -webkit-text-stroke-width: 0px; white-space: nowrap; background-color: rgb(255, 255, 255); text-decoration-thickness: initial; text-decoration-style: initial; text-decoration-color: initial; display: inline !important; float: none;&quot;&gt;&amp;lt;&amp;lt;include&amp;gt;&amp;gt;&lt;/span&gt;" style="html=1;whiteSpace=wrap;fillColor=none;strokeColor=none;rotation=0;" parent="eqbEw0cFiS0CcYSaoT_Q-1" vertex="1">
          <mxGeometry x="350" y="200" width="60" height="15" as="geometry" />
        </mxCell>
        <mxCell id="87FNjP04pHy1DOySvpu--19" value="&lt;span style=&quot;color: rgb(0, 0, 0); font-family: Helvetica; font-size: 11px; font-style: normal; font-variant-ligatures: normal; font-variant-caps: normal; font-weight: 400; letter-spacing: normal; orphans: 2; text-align: center; text-indent: 0px; text-transform: none; widows: 2; word-spacing: 0px; -webkit-text-stroke-width: 0px; white-space: nowrap; background-color: rgb(255, 255, 255); text-decoration-thickness: initial; text-decoration-style: initial; text-decoration-color: initial; display: inline !important; float: none;&quot;&gt;&amp;lt;&amp;lt;include&amp;gt;&amp;gt;&lt;/span&gt;" style="html=1;whiteSpace=wrap;fillColor=none;strokeColor=none;rotation=33.1;" parent="eqbEw0cFiS0CcYSaoT_Q-1" vertex="1">
          <mxGeometry x="350" y="280" width="60" height="15" as="geometry" />
        </mxCell>
        <mxCell id="87FNjP04pHy1DOySvpu--20" value="Registrarse" style="ellipse;whiteSpace=wrap;html=1;" parent="eqbEw0cFiS0CcYSaoT_Q-1" vertex="1">
          <mxGeometry x="180" y="310" width="120" height="70" as="geometry" />
        </mxCell>
        <mxCell id="87FNjP04pHy1DOySvpu--21" value="Recuperar contraseña" style="ellipse;whiteSpace=wrap;html=1;" parent="eqbEw0cFiS0CcYSaoT_Q-1" vertex="1">
          <mxGeometry x="180" y="40" width="120" height="70" as="geometry" />
        </mxCell>
        <mxCell id="87FNjP04pHy1DOySvpu--23" style="rounded=0;orthogonalLoop=1;jettySize=auto;html=1;entryX=1;entryY=0;entryDx=0;entryDy=0;dashed=1;dashPattern=8 8;" parent="eqbEw0cFiS0CcYSaoT_Q-1" source="eqbEw0cFiS0CcYSaoT_Q-7" target="87FNjP04pHy1DOySvpu--15" edge="1">
          <mxGeometry relative="1" as="geometry" />
        </mxCell>
        <mxCell id="87FNjP04pHy1DOySvpu--24" style="rounded=0;orthogonalLoop=1;jettySize=auto;html=1;entryX=1;entryY=0.5;entryDx=0;entryDy=0;dashed=1;dashPattern=8 8;" parent="eqbEw0cFiS0CcYSaoT_Q-1" source="eqbEw0cFiS0CcYSaoT_Q-11" target="87FNjP04pHy1DOySvpu--15" edge="1">
          <mxGeometry relative="1" as="geometry" />
        </mxCell>
        <mxCell id="87FNjP04pHy1DOySvpu--25" style="rounded=0;orthogonalLoop=1;jettySize=auto;html=1;entryX=1;entryY=1;entryDx=0;entryDy=0;dashed=1;dashPattern=8 8;" parent="eqbEw0cFiS0CcYSaoT_Q-1" source="eqbEw0cFiS0CcYSaoT_Q-18" target="87FNjP04pHy1DOySvpu--15" edge="1">
          <mxGeometry relative="1" as="geometry" />
        </mxCell>
        <mxCell id="QisJ7fhGWfwmyBjyAnA7-1" style="edgeStyle=orthogonalEdgeStyle;rounded=0;orthogonalLoop=1;jettySize=auto;html=1;endArrow=none;endFill=0;dashed=1;dashPattern=8 8;strokeColor=default;align=center;verticalAlign=middle;fontFamily=Helvetica;fontSize=11;fontColor=default;labelBackgroundColor=default;startArrow=classic;startFill=1;entryX=0;entryY=0.5;entryDx=0;entryDy=0;" parent="eqbEw0cFiS0CcYSaoT_Q-1" source="eqbEw0cFiS0CcYSaoT_Q-7" edge="1" target="QisJ7fhGWfwmyBjyAnA7-0">
          <mxGeometry relative="1" as="geometry">
            <mxPoint x="610" y="90" as="targetPoint" />
          </mxGeometry>
        </mxCell>
        <mxCell id="eqbEw0cFiS0CcYSaoT_Q-7" value="Ver su colección" style="ellipse;whiteSpace=wrap;html=1;" parent="eqbEw0cFiS0CcYSaoT_Q-1" vertex="1">
          <mxGeometry x="450" y="55" width="120" height="70" as="geometry" />
        </mxCell>
        <mxCell id="eqbEw0cFiS0CcYSaoT_Q-15" value="" style="group" parent="eqbEw0cFiS0CcYSaoT_Q-1" vertex="1" connectable="0">
          <mxGeometry x="450" y="305" width="280" height="160" as="geometry" />
        </mxCell>
        <mxCell id="eqbEw0cFiS0CcYSaoT_Q-16" style="rounded=0;orthogonalLoop=1;jettySize=auto;html=1;entryX=0;entryY=0.5;entryDx=0;entryDy=0;strokeColor=default;align=center;verticalAlign=middle;fontFamily=Helvetica;fontSize=11;fontColor=default;labelBackgroundColor=default;endArrow=none;endFill=0;dashed=1;dashPattern=8 8;startArrow=classic;startFill=1;" parent="eqbEw0cFiS0CcYSaoT_Q-15" source="eqbEw0cFiS0CcYSaoT_Q-18" target="eqbEw0cFiS0CcYSaoT_Q-20" edge="1">
          <mxGeometry relative="1" as="geometry" />
        </mxCell>
        <mxCell id="eqbEw0cFiS0CcYSaoT_Q-17" style="rounded=0;orthogonalLoop=1;jettySize=auto;html=1;entryX=0;entryY=0.5;entryDx=0;entryDy=0;strokeColor=default;align=center;verticalAlign=middle;fontFamily=Helvetica;fontSize=11;fontColor=default;labelBackgroundColor=default;endArrow=none;endFill=0;dashed=1;dashPattern=8 8;startArrow=classic;startFill=1;" parent="eqbEw0cFiS0CcYSaoT_Q-15" source="eqbEw0cFiS0CcYSaoT_Q-18" target="eqbEw0cFiS0CcYSaoT_Q-21" edge="1">
          <mxGeometry relative="1" as="geometry" />
        </mxCell>
        <mxCell id="eqbEw0cFiS0CcYSaoT_Q-18" value="Modificar su colección" style="ellipse;whiteSpace=wrap;html=1;" parent="eqbEw0cFiS0CcYSaoT_Q-15" vertex="1">
          <mxGeometry y="45" width="120" height="70" as="geometry" />
        </mxCell>
        <mxCell id="eqbEw0cFiS0CcYSaoT_Q-19" value="" style="group" parent="eqbEw0cFiS0CcYSaoT_Q-15" vertex="1" connectable="0">
          <mxGeometry x="190" width="120" height="160" as="geometry" />
        </mxCell>
        <mxCell id="eqbEw0cFiS0CcYSaoT_Q-20" value="Eliminar un disco&lt;div&gt;de su colección&lt;/div&gt;" style="ellipse;whiteSpace=wrap;html=1;" parent="eqbEw0cFiS0CcYSaoT_Q-19" vertex="1">
          <mxGeometry width="120" height="70" as="geometry" />
        </mxCell>
        <mxCell id="eqbEw0cFiS0CcYSaoT_Q-21" value="Solicitar cambios para un disco" style="ellipse;whiteSpace=wrap;html=1;" parent="eqbEw0cFiS0CcYSaoT_Q-19" vertex="1">
          <mxGeometry y="90" width="120" height="70" as="geometry" />
        </mxCell>
        <mxCell id="FqIJRNV2OPdHj0CYlq_R-1" value="&lt;span style=&quot;color: rgb(0, 0, 0); font-family: Helvetica; font-size: 11px; font-style: normal; font-variant-ligatures: normal; font-variant-caps: normal; font-weight: 400; letter-spacing: normal; orphans: 2; text-align: center; text-indent: 0px; text-transform: none; widows: 2; word-spacing: 0px; -webkit-text-stroke-width: 0px; white-space: nowrap; background-color: rgb(255, 255, 255); text-decoration-thickness: initial; text-decoration-style: initial; text-decoration-color: initial; display: inline !important; float: none;&quot;&gt;&amp;lt;&amp;lt;include&amp;gt;&amp;gt;&lt;/span&gt;" style="html=1;whiteSpace=wrap;fillColor=none;strokeColor=none;rotation=339;" vertex="1" parent="eqbEw0cFiS0CcYSaoT_Q-15">
          <mxGeometry x="120" y="30" width="60" height="15" as="geometry" />
        </mxCell>
        <mxCell id="QisJ7fhGWfwmyBjyAnA7-0" value="Ver detalles de un disco" style="ellipse;whiteSpace=wrap;html=1;" parent="eqbEw0cFiS0CcYSaoT_Q-1" vertex="1">
          <mxGeometry x="640" y="55" width="120" height="70" as="geometry" />
        </mxCell>
        <mxCell id="eqbEw0cFiS0CcYSaoT_Q-9" style="rounded=0;orthogonalLoop=1;jettySize=auto;html=1;entryX=0;entryY=0.5;entryDx=0;entryDy=0;strokeColor=default;align=center;verticalAlign=middle;fontFamily=Helvetica;fontSize=11;fontColor=default;labelBackgroundColor=default;endArrow=none;endFill=0;dashed=1;dashPattern=8 8;startArrow=classic;startFill=1;" parent="eqbEw0cFiS0CcYSaoT_Q-1" source="eqbEw0cFiS0CcYSaoT_Q-11" target="eqbEw0cFiS0CcYSaoT_Q-13" edge="1">
          <mxGeometry relative="1" as="geometry" />
        </mxCell>
        <mxCell id="eqbEw0cFiS0CcYSaoT_Q-10" style="rounded=0;orthogonalLoop=1;jettySize=auto;html=1;entryX=0;entryY=0.5;entryDx=0;entryDy=0;strokeColor=default;align=center;verticalAlign=middle;fontFamily=Helvetica;fontSize=11;fontColor=default;labelBackgroundColor=default;endArrow=none;endFill=0;dashed=1;dashPattern=8 8;startArrow=classic;startFill=1;" parent="eqbEw0cFiS0CcYSaoT_Q-1" source="eqbEw0cFiS0CcYSaoT_Q-11" target="eqbEw0cFiS0CcYSaoT_Q-14" edge="1">
          <mxGeometry relative="1" as="geometry" />
        </mxCell>
        <mxCell id="eqbEw0cFiS0CcYSaoT_Q-11" value="Insertar un nuevo disco" style="ellipse;whiteSpace=wrap;html=1;" parent="eqbEw0cFiS0CcYSaoT_Q-1" vertex="1">
          <mxGeometry x="450" y="180" width="120" height="70" as="geometry" />
        </mxCell>
        <mxCell id="eqbEw0cFiS0CcYSaoT_Q-12" value="" style="group" parent="eqbEw0cFiS0CcYSaoT_Q-1" vertex="1" connectable="0">
          <mxGeometry x="640" y="135" width="120" height="160" as="geometry" />
        </mxCell>
        <mxCell id="eqbEw0cFiS0CcYSaoT_Q-13" value="Búsqueda manual&lt;span style=&quot;color: rgba(0, 0, 0, 0); font-family: monospace; font-size: 0px; text-align: start; text-wrap: nowrap;&quot;&gt;%3CmxGraphModel%3E%3Croot%3E%3CmxCell%20id%3D%220%22%2F%3E%3CmxCell%20id%3D%221%22%20parent%3D%220%22%2F%3E%3CmxCell%20id%3D%222%22%20value%3D%22Insertar%20un%20nuevo%20disco%22%20style%3D%22ellipse%3BwhiteSpace%3Dwrap%3Bhtml%3D1%3B%22%20vertex%3D%221%22%20parent%3D%221%22%3E%3CmxGeometry%20x%3D%22320%22%20y%3D%22180%22%20width%3D%22120%22%20height%3D%2270%22%20as%3D%22geometry%22%2F%3E%3C%2FmxCell%3E%3C%2Froot%3E%3C%2FmxGraphModel%3E&lt;/span&gt;" style="ellipse;whiteSpace=wrap;html=1;" parent="eqbEw0cFiS0CcYSaoT_Q-12" vertex="1">
          <mxGeometry width="120" height="70" as="geometry" />
        </mxCell>
        <mxCell id="eqbEw0cFiS0CcYSaoT_Q-14" value="Escanear código de barras" style="ellipse;whiteSpace=wrap;html=1;" parent="eqbEw0cFiS0CcYSaoT_Q-12" vertex="1">
          <mxGeometry y="90" width="120" height="70" as="geometry" />
        </mxCell>
        <mxCell id="FqIJRNV2OPdHj0CYlq_R-0" value="&lt;span style=&quot;color: rgb(0, 0, 0); font-family: Helvetica; font-size: 11px; font-style: normal; font-variant-ligatures: normal; font-variant-caps: normal; font-weight: 400; letter-spacing: normal; orphans: 2; text-align: center; text-indent: 0px; text-transform: none; widows: 2; word-spacing: 0px; -webkit-text-stroke-width: 0px; white-space: nowrap; background-color: rgb(255, 255, 255); text-decoration-thickness: initial; text-decoration-style: initial; text-decoration-color: initial; display: inline !important; float: none;&quot;&gt;&amp;lt;&amp;lt;extends&amp;gt;&amp;gt;&lt;/span&gt;" style="html=1;whiteSpace=wrap;fillColor=none;strokeColor=none;rotation=339;" vertex="1" parent="eqbEw0cFiS0CcYSaoT_Q-1">
          <mxGeometry x="565" y="164" width="60" height="15" as="geometry" />
        </mxCell>
        <mxCell id="FqIJRNV2OPdHj0CYlq_R-2" value="&lt;span style=&quot;color: rgb(0, 0, 0); font-family: Helvetica; font-size: 11px; font-style: normal; font-variant-ligatures: normal; font-variant-caps: normal; font-weight: 400; letter-spacing: normal; orphans: 2; text-align: center; text-indent: 0px; text-transform: none; widows: 2; word-spacing: 0px; -webkit-text-stroke-width: 0px; white-space: nowrap; background-color: rgb(255, 255, 255); text-decoration-thickness: initial; text-decoration-style: initial; text-decoration-color: initial; display: inline !important; float: none;&quot;&gt;&amp;lt;&amp;lt;extends&amp;gt;&amp;gt;&lt;/span&gt;" style="html=1;whiteSpace=wrap;fillColor=none;strokeColor=none;rotation=20;" vertex="1" parent="eqbEw0cFiS0CcYSaoT_Q-1">
          <mxGeometry x="575" y="400" width="60" height="15" as="geometry" />
        </mxCell>
        <mxCell id="FqIJRNV2OPdHj0CYlq_R-3" value="&lt;span style=&quot;color: rgb(0, 0, 0); font-family: Helvetica; font-size: 11px; font-style: normal; font-variant-ligatures: normal; font-variant-caps: normal; font-weight: 400; letter-spacing: normal; orphans: 2; text-align: center; text-indent: 0px; text-transform: none; widows: 2; word-spacing: 0px; -webkit-text-stroke-width: 0px; white-space: nowrap; background-color: rgb(255, 255, 255); text-decoration-thickness: initial; text-decoration-style: initial; text-decoration-color: initial; display: inline !important; float: none;&quot;&gt;&amp;lt;&amp;lt;extends&amp;gt;&amp;gt;&lt;/span&gt;" style="html=1;whiteSpace=wrap;fillColor=none;strokeColor=none;rotation=20;" vertex="1" parent="eqbEw0cFiS0CcYSaoT_Q-1">
          <mxGeometry x="576" y="230" width="60" height="15" as="geometry" />
        </mxCell>
        <mxCell id="FqIJRNV2OPdHj0CYlq_R-4" value="&lt;span style=&quot;color: rgb(0, 0, 0); font-family: Helvetica; font-size: 11px; font-style: normal; font-variant-ligatures: normal; font-variant-caps: normal; font-weight: 400; letter-spacing: normal; orphans: 2; text-align: center; text-indent: 0px; text-transform: none; widows: 2; word-spacing: 0px; -webkit-text-stroke-width: 0px; white-space: nowrap; background-color: rgb(255, 255, 255); text-decoration-thickness: initial; text-decoration-style: initial; text-decoration-color: initial; display: inline !important; float: none;&quot;&gt;&amp;lt;&amp;lt;extends&amp;gt;&amp;gt;&lt;/span&gt;" style="html=1;whiteSpace=wrap;fillColor=none;strokeColor=none;rotation=0;" vertex="1" parent="eqbEw0cFiS0CcYSaoT_Q-1">
          <mxGeometry x="575" y="71" width="60" height="15" as="geometry" />
        </mxCell>
      </root>
    </mxGraphModel>
  </diagram>
  <diagram name="Administrador" id="eHQgPAYjMPr35egHbKCN">
    <mxGraphModel dx="587" dy="349" grid="1" gridSize="10" guides="1" tooltips="1" connect="1" arrows="1" fold="1" page="1" pageScale="1" pageWidth="827" pageHeight="1169" math="0" shadow="0">
      <root>
        <mxCell id="wU0Vz7uHyIaqZFEzCgcS-0" />
        <mxCell id="wU0Vz7uHyIaqZFEzCgcS-1" parent="wU0Vz7uHyIaqZFEzCgcS-0" />
        <mxCell id="wU0Vz7uHyIaqZFEzCgcS-7" style="edgeStyle=orthogonalEdgeStyle;rounded=0;orthogonalLoop=1;jettySize=auto;html=1;endArrow=none;endFill=0;dashed=1;dashPattern=8 8;strokeColor=default;align=center;verticalAlign=middle;fontFamily=Helvetica;fontSize=11;fontColor=default;labelBackgroundColor=default;startArrow=classic;startFill=1;" parent="wU0Vz7uHyIaqZFEzCgcS-1" source="wU0Vz7uHyIaqZFEzCgcS-8" edge="1">
          <mxGeometry relative="1" as="geometry">
            <mxPoint x="680" y="55" as="targetPoint" />
          </mxGeometry>
        </mxCell>
        <mxCell id="wU0Vz7uHyIaqZFEzCgcS-9" value="" style="group" parent="wU0Vz7uHyIaqZFEzCgcS-1" vertex="1" connectable="0">
          <mxGeometry x="520" y="350" width="280" height="160" as="geometry" />
        </mxCell>
        <mxCell id="wU0Vz7uHyIaqZFEzCgcS-13" value="" style="group" parent="wU0Vz7uHyIaqZFEzCgcS-9" vertex="1" connectable="0">
          <mxGeometry x="160" width="120" height="160" as="geometry" />
        </mxCell>
        <mxCell id="wU0Vz7uHyIaqZFEzCgcS-14" value="Eliminar un usuario" style="ellipse;whiteSpace=wrap;html=1;" parent="wU0Vz7uHyIaqZFEzCgcS-13" vertex="1">
          <mxGeometry width="120" height="70" as="geometry" />
        </mxCell>
        <mxCell id="wU0Vz7uHyIaqZFEzCgcS-15" value="Modificar datos&lt;div&gt;de un usuario&lt;/div&gt;" style="ellipse;whiteSpace=wrap;html=1;" parent="wU0Vz7uHyIaqZFEzCgcS-13" vertex="1">
          <mxGeometry y="90" width="120" height="70" as="geometry" />
        </mxCell>
        <mxCell id="tt7WCw0iqk4DY7e5poZ8-0" value="&lt;span style=&quot;color: rgb(0, 0, 0); font-family: Helvetica; font-size: 11px; font-style: normal; font-variant-ligatures: normal; font-variant-caps: normal; font-weight: 400; letter-spacing: normal; orphans: 2; text-align: center; text-indent: 0px; text-transform: none; widows: 2; word-spacing: 0px; -webkit-text-stroke-width: 0px; white-space: nowrap; background-color: rgb(255, 255, 255); text-decoration-thickness: initial; text-decoration-style: initial; text-decoration-color: initial; display: inline !important; float: none;&quot;&gt;&amp;lt;&amp;lt;include&amp;gt;&amp;gt;&lt;/span&gt;" style="html=1;whiteSpace=wrap;fillColor=none;strokeColor=none;rotation=15;" vertex="1" parent="wU0Vz7uHyIaqZFEzCgcS-9">
          <mxGeometry x="83" y="93" width="60" height="15" as="geometry" />
        </mxCell>
        <mxCell id="tt7WCw0iqk4DY7e5poZ8-2" value="&lt;span style=&quot;color: rgb(0, 0, 0); font-family: Helvetica; font-size: 11px; font-style: normal; font-variant-ligatures: normal; font-variant-caps: normal; font-weight: 400; letter-spacing: normal; orphans: 2; text-align: center; text-indent: 0px; text-transform: none; widows: 2; word-spacing: 0px; -webkit-text-stroke-width: 0px; white-space: nowrap; background-color: rgb(255, 255, 255); text-decoration-thickness: initial; text-decoration-style: initial; text-decoration-color: initial; display: inline !important; float: none;&quot;&gt;&amp;lt;&amp;lt;include&amp;gt;&amp;gt;&lt;/span&gt;" style="html=1;whiteSpace=wrap;fillColor=none;strokeColor=none;rotation=-15;" vertex="1" parent="wU0Vz7uHyIaqZFEzCgcS-9">
          <mxGeometry x="70" y="30" width="60" height="15" as="geometry" />
        </mxCell>
        <mxCell id="wU0Vz7uHyIaqZFEzCgcS-16" value="" style="group" parent="wU0Vz7uHyIaqZFEzCgcS-1" vertex="1" connectable="0">
          <mxGeometry x="520" y="100" width="280" height="160" as="geometry" />
        </mxCell>
        <mxCell id="wU0Vz7uHyIaqZFEzCgcS-20" value="" style="group" parent="wU0Vz7uHyIaqZFEzCgcS-16" vertex="1" connectable="0">
          <mxGeometry x="160" width="120" height="160" as="geometry" />
        </mxCell>
        <mxCell id="wU0Vz7uHyIaqZFEzCgcS-21" value="Eliminar un disco globalmente" style="ellipse;whiteSpace=wrap;html=1;" parent="wU0Vz7uHyIaqZFEzCgcS-20" vertex="1">
          <mxGeometry width="120" height="70" as="geometry" />
        </mxCell>
        <mxCell id="wU0Vz7uHyIaqZFEzCgcS-22" value="Modificar datos&lt;div&gt;de un disco&lt;/div&gt;" style="ellipse;whiteSpace=wrap;html=1;" parent="wU0Vz7uHyIaqZFEzCgcS-20" vertex="1">
          <mxGeometry y="90" width="120" height="70" as="geometry" />
        </mxCell>
        <mxCell id="tt7WCw0iqk4DY7e5poZ8-4" value="&lt;span style=&quot;color: rgb(0, 0, 0); font-family: Helvetica; font-size: 11px; font-style: normal; font-variant-ligatures: normal; font-variant-caps: normal; font-weight: 400; letter-spacing: normal; orphans: 2; text-align: center; text-indent: 0px; text-transform: none; widows: 2; word-spacing: 0px; -webkit-text-stroke-width: 0px; white-space: nowrap; background-color: rgb(255, 255, 255); text-decoration-thickness: initial; text-decoration-style: initial; text-decoration-color: initial; display: inline !important; float: none;&quot;&gt;&amp;lt;&amp;lt;include&amp;gt;&amp;gt;&lt;/span&gt;" style="html=1;whiteSpace=wrap;fillColor=none;strokeColor=none;rotation=15;" vertex="1" parent="wU0Vz7uHyIaqZFEzCgcS-16">
          <mxGeometry x="79" y="91" width="60" height="15" as="geometry" />
        </mxCell>
        <mxCell id="wU0Vz7uHyIaqZFEzCgcS-23" value="Ver detalles de un disco" style="ellipse;whiteSpace=wrap;html=1;" parent="wU0Vz7uHyIaqZFEzCgcS-1" vertex="1">
          <mxGeometry x="680" y="20" width="120" height="70" as="geometry" />
        </mxCell>
        <mxCell id="OvXokXjUddw-tPnCXito-12" style="rounded=0;orthogonalLoop=1;jettySize=auto;html=1;entryX=0;entryY=0.5;entryDx=0;entryDy=0;endArrow=none;endFill=0;" parent="wU0Vz7uHyIaqZFEzCgcS-1" source="wU0Vz7uHyIaqZFEzCgcS-5" target="OvXokXjUddw-tPnCXito-11" edge="1">
          <mxGeometry relative="1" as="geometry" />
        </mxCell>
        <mxCell id="R4_8Ar7o7bfGrGuCPdBQ-0" style="rounded=0;orthogonalLoop=1;jettySize=auto;html=1;endArrow=none;endFill=0;" parent="wU0Vz7uHyIaqZFEzCgcS-1" source="wU0Vz7uHyIaqZFEzCgcS-5" target="OvXokXjUddw-tPnCXito-0" edge="1">
          <mxGeometry relative="1" as="geometry" />
        </mxCell>
        <mxCell id="wU0Vz7uHyIaqZFEzCgcS-5" value="Administrador" style="shape=umlActor;verticalLabelPosition=bottom;verticalAlign=top;html=1;" parent="wU0Vz7uHyIaqZFEzCgcS-1" vertex="1">
          <mxGeometry x="40" y="215" width="30" height="60" as="geometry" />
        </mxCell>
        <mxCell id="OvXokXjUddw-tPnCXito-1" value="" style="rounded=0;orthogonalLoop=1;jettySize=auto;html=1;entryX=1;entryY=0;entryDx=0;entryDy=0;dashed=1;dashPattern=8 8;verticalAlign=middle;horizontal=1;labelPosition=center;verticalLabelPosition=middle;align=center;" parent="wU0Vz7uHyIaqZFEzCgcS-1" source="wU0Vz7uHyIaqZFEzCgcS-8" target="OvXokXjUddw-tPnCXito-0" edge="1">
          <mxGeometry x="-0.2336" y="18" relative="1" as="geometry">
            <mxPoint as="offset" />
          </mxGeometry>
        </mxCell>
        <mxCell id="wU0Vz7uHyIaqZFEzCgcS-8" value="Ver discos en la&lt;div&gt;base de datos&lt;/div&gt;" style="ellipse;whiteSpace=wrap;html=1;" parent="wU0Vz7uHyIaqZFEzCgcS-1" vertex="1">
          <mxGeometry x="450" y="20" width="120" height="70" as="geometry" />
        </mxCell>
        <mxCell id="wU0Vz7uHyIaqZFEzCgcS-12" value="Modificar usuarios&lt;div&gt;en la base de datos&lt;/div&gt;" style="ellipse;whiteSpace=wrap;html=1;" parent="wU0Vz7uHyIaqZFEzCgcS-1" vertex="1">
          <mxGeometry x="450" y="395" width="120" height="70" as="geometry" />
        </mxCell>
        <mxCell id="wU0Vz7uHyIaqZFEzCgcS-10" style="rounded=0;orthogonalLoop=1;jettySize=auto;html=1;entryX=0;entryY=0.5;entryDx=0;entryDy=0;strokeColor=default;align=center;verticalAlign=middle;fontFamily=Helvetica;fontSize=11;fontColor=default;labelBackgroundColor=default;endArrow=none;endFill=0;dashed=1;dashPattern=8 8;startArrow=classic;startFill=1;" parent="wU0Vz7uHyIaqZFEzCgcS-1" source="wU0Vz7uHyIaqZFEzCgcS-12" target="wU0Vz7uHyIaqZFEzCgcS-14" edge="1">
          <mxGeometry relative="1" as="geometry" />
        </mxCell>
        <mxCell id="wU0Vz7uHyIaqZFEzCgcS-19" value="Modificar discos en&lt;div&gt;la base de datos&lt;/div&gt;" style="ellipse;whiteSpace=wrap;html=1;" parent="wU0Vz7uHyIaqZFEzCgcS-1" vertex="1">
          <mxGeometry x="450" y="145" width="120" height="70" as="geometry" />
        </mxCell>
        <mxCell id="wU0Vz7uHyIaqZFEzCgcS-11" style="rounded=0;orthogonalLoop=1;jettySize=auto;html=1;entryX=0;entryY=0.5;entryDx=0;entryDy=0;strokeColor=default;align=center;verticalAlign=middle;fontFamily=Helvetica;fontSize=11;fontColor=default;labelBackgroundColor=default;endArrow=none;endFill=0;dashed=1;dashPattern=8 8;startArrow=classic;startFill=1;" parent="wU0Vz7uHyIaqZFEzCgcS-1" source="wU0Vz7uHyIaqZFEzCgcS-12" target="wU0Vz7uHyIaqZFEzCgcS-15" edge="1">
          <mxGeometry relative="1" as="geometry" />
        </mxCell>
        <mxCell id="OvXokXjUddw-tPnCXito-3" value="&lt;div&gt;&lt;br/&gt;&lt;/div&gt;" style="rounded=0;orthogonalLoop=1;jettySize=auto;html=1;dashed=1;dashPattern=8 8;strokeColor=default;align=center;verticalAlign=middle;fontFamily=Helvetica;fontSize=11;fontColor=default;labelBackgroundColor=default;endArrow=classic;" parent="wU0Vz7uHyIaqZFEzCgcS-1" source="0gsZgG6ZghXl7xd7AF-f-2" target="OvXokXjUddw-tPnCXito-0" edge="1">
          <mxGeometry relative="1" as="geometry">
            <mxPoint x="320" y="250" as="targetPoint" />
          </mxGeometry>
        </mxCell>
        <mxCell id="wU0Vz7uHyIaqZFEzCgcS-17" style="rounded=0;orthogonalLoop=1;jettySize=auto;html=1;entryX=0;entryY=0.5;entryDx=0;entryDy=0;strokeColor=default;align=center;verticalAlign=middle;fontFamily=Helvetica;fontSize=11;fontColor=default;labelBackgroundColor=default;endArrow=none;endFill=0;dashed=1;dashPattern=8 8;startArrow=classic;startFill=1;" parent="wU0Vz7uHyIaqZFEzCgcS-1" source="wU0Vz7uHyIaqZFEzCgcS-19" target="wU0Vz7uHyIaqZFEzCgcS-21" edge="1">
          <mxGeometry relative="1" as="geometry" />
        </mxCell>
        <mxCell id="0gsZgG6ZghXl7xd7AF-f-2" value="Ver usuarios en la&lt;div&gt;base de datos&lt;/div&gt;" style="ellipse;whiteSpace=wrap;html=1;" parent="wU0Vz7uHyIaqZFEzCgcS-1" vertex="1">
          <mxGeometry x="450" y="270" width="120" height="70" as="geometry" />
        </mxCell>
        <mxCell id="wU0Vz7uHyIaqZFEzCgcS-18" style="rounded=0;orthogonalLoop=1;jettySize=auto;html=1;entryX=0;entryY=0.5;entryDx=0;entryDy=0;strokeColor=default;align=center;verticalAlign=middle;fontFamily=Helvetica;fontSize=11;fontColor=default;labelBackgroundColor=default;endArrow=none;endFill=0;dashed=1;dashPattern=8 8;startArrow=classic;startFill=1;" parent="wU0Vz7uHyIaqZFEzCgcS-1" source="wU0Vz7uHyIaqZFEzCgcS-19" target="wU0Vz7uHyIaqZFEzCgcS-22" edge="1">
          <mxGeometry relative="1" as="geometry" />
        </mxCell>
        <mxCell id="OvXokXjUddw-tPnCXito-0" value="Iniciar sesión" style="ellipse;whiteSpace=wrap;html=1;" parent="wU0Vz7uHyIaqZFEzCgcS-1" vertex="1">
          <mxGeometry x="210" y="210" width="120" height="70" as="geometry" />
        </mxCell>
        <mxCell id="OvXokXjUddw-tPnCXito-2" value="" style="rounded=0;orthogonalLoop=1;jettySize=auto;html=1;entryX=0.993;entryY=0.36;entryDx=0;entryDy=0;dashed=1;dashPattern=8 8;strokeColor=default;align=center;verticalAlign=middle;fontFamily=Helvetica;fontSize=11;fontColor=default;labelBackgroundColor=none;endArrow=classic;entryPerimeter=0;horizontal=1;spacingBottom=0;spacing=2;" parent="wU0Vz7uHyIaqZFEzCgcS-1" source="wU0Vz7uHyIaqZFEzCgcS-19" target="OvXokXjUddw-tPnCXito-0" edge="1">
          <mxGeometry x="-0.1088" y="18" relative="1" as="geometry">
            <mxPoint as="offset" />
          </mxGeometry>
        </mxCell>
        <mxCell id="OvXokXjUddw-tPnCXito-4" value="&lt;div&gt;&lt;br/&gt;&lt;/div&gt;" style="rounded=0;orthogonalLoop=1;jettySize=auto;html=1;dashed=1;dashPattern=8 8;strokeColor=default;align=center;verticalAlign=middle;fontFamily=Helvetica;fontSize=11;fontColor=default;labelBackgroundColor=default;endArrow=classic;entryX=1;entryY=1;entryDx=0;entryDy=0;" parent="wU0Vz7uHyIaqZFEzCgcS-1" source="wU0Vz7uHyIaqZFEzCgcS-12" target="OvXokXjUddw-tPnCXito-0" edge="1">
          <mxGeometry relative="1" as="geometry" />
        </mxCell>
        <mxCell id="OvXokXjUddw-tPnCXito-6" value="&lt;span style=&quot;color: rgb(0, 0, 0); font-family: Helvetica; font-size: 11px; font-style: normal; font-variant-ligatures: normal; font-variant-caps: normal; font-weight: 400; letter-spacing: normal; orphans: 2; text-align: center; text-indent: 0px; text-transform: none; widows: 2; word-spacing: 0px; -webkit-text-stroke-width: 0px; white-space: nowrap; background-color: rgb(255, 255, 255); text-decoration-thickness: initial; text-decoration-style: initial; text-decoration-color: initial; display: inline !important; float: none;&quot;&gt;&amp;lt;&amp;lt;include&amp;gt;&amp;gt;&lt;/span&gt;" style="html=1;whiteSpace=wrap;fillColor=none;strokeColor=none;rotation=319;" parent="wU0Vz7uHyIaqZFEzCgcS-1" vertex="1">
          <mxGeometry x="350" y="140" width="60" height="15" as="geometry" />
        </mxCell>
        <mxCell id="OvXokXjUddw-tPnCXito-7" value="&lt;span style=&quot;color: rgb(0, 0, 0); font-family: Helvetica; font-size: 11px; font-style: normal; font-variant-ligatures: normal; font-variant-caps: normal; font-weight: 400; letter-spacing: normal; orphans: 2; text-align: center; text-indent: 0px; text-transform: none; widows: 2; word-spacing: 0px; -webkit-text-stroke-width: 0px; white-space: nowrap; background-color: rgb(255, 255, 255); text-decoration-thickness: initial; text-decoration-style: initial; text-decoration-color: initial; display: inline !important; float: none;&quot;&gt;&amp;lt;&amp;lt;include&amp;gt;&amp;gt;&lt;/span&gt;" style="html=1;whiteSpace=wrap;fillColor=none;strokeColor=none;rotation=343;" parent="wU0Vz7uHyIaqZFEzCgcS-1" vertex="1">
          <mxGeometry x="370" y="195" width="60" height="15" as="geometry" />
        </mxCell>
        <mxCell id="OvXokXjUddw-tPnCXito-8" value="&lt;span style=&quot;color: rgb(0, 0, 0); font-family: Helvetica; font-size: 11px; font-style: normal; font-variant-ligatures: normal; font-variant-caps: normal; font-weight: 400; letter-spacing: normal; orphans: 2; text-align: center; text-indent: 0px; text-transform: none; widows: 2; word-spacing: 0px; -webkit-text-stroke-width: 0px; white-space: nowrap; background-color: rgb(255, 255, 255); text-decoration-thickness: initial; text-decoration-style: initial; text-decoration-color: initial; display: inline !important; float: none;&quot;&gt;&amp;lt;&amp;lt;include&amp;gt;&amp;gt;&lt;/span&gt;" style="html=1;whiteSpace=wrap;fillColor=none;strokeColor=none;rotation=13;" parent="wU0Vz7uHyIaqZFEzCgcS-1" vertex="1">
          <mxGeometry x="372" y="259" width="60" height="15" as="geometry" />
        </mxCell>
        <mxCell id="OvXokXjUddw-tPnCXito-9" value="&lt;span style=&quot;color: rgb(0, 0, 0); font-family: Helvetica; font-size: 11px; font-style: normal; font-variant-ligatures: normal; font-variant-caps: normal; font-weight: 400; letter-spacing: normal; orphans: 2; text-align: center; text-indent: 0px; text-transform: none; widows: 2; word-spacing: 0px; -webkit-text-stroke-width: 0px; white-space: nowrap; background-color: rgb(255, 255, 255); text-decoration-thickness: initial; text-decoration-style: initial; text-decoration-color: initial; display: inline !important; float: none;&quot;&gt;&amp;lt;&amp;lt;include&amp;gt;&amp;gt;&lt;/span&gt;" style="html=1;whiteSpace=wrap;fillColor=none;strokeColor=none;rotation=37.9;" parent="wU0Vz7uHyIaqZFEzCgcS-1" vertex="1">
          <mxGeometry x="369" y="317" width="60" height="15" as="geometry" />
        </mxCell>
        <mxCell id="OvXokXjUddw-tPnCXito-11" value="Recuperar contraseña" style="ellipse;whiteSpace=wrap;html=1;" parent="wU0Vz7uHyIaqZFEzCgcS-1" vertex="1">
          <mxGeometry x="210" y="350" width="120" height="70" as="geometry" />
        </mxCell>
        <mxCell id="tt7WCw0iqk4DY7e5poZ8-3" value="&lt;span style=&quot;color: rgb(0, 0, 0); font-family: Helvetica; font-size: 11px; font-style: normal; font-variant-ligatures: normal; font-variant-caps: normal; font-weight: 400; letter-spacing: normal; orphans: 2; text-align: center; text-indent: 0px; text-transform: none; widows: 2; word-spacing: 0px; -webkit-text-stroke-width: 0px; white-space: nowrap; background-color: rgb(255, 255, 255); text-decoration-thickness: initial; text-decoration-style: initial; text-decoration-color: initial; display: inline !important; float: none;&quot;&gt;&amp;lt;&amp;lt;include&amp;gt;&amp;gt;&lt;/span&gt;" style="html=1;whiteSpace=wrap;fillColor=none;strokeColor=none;rotation=-15;" vertex="1" parent="wU0Vz7uHyIaqZFEzCgcS-1">
          <mxGeometry x="586" y="134" width="60" height="15" as="geometry" />
        </mxCell>
        <mxCell id="tt7WCw0iqk4DY7e5poZ8-5" value="&lt;span style=&quot;color: rgb(0, 0, 0); font-family: Helvetica; font-size: 11px; font-style: normal; font-variant-ligatures: normal; font-variant-caps: normal; font-weight: 400; letter-spacing: normal; orphans: 2; text-align: center; text-indent: 0px; text-transform: none; widows: 2; word-spacing: 0px; -webkit-text-stroke-width: 0px; white-space: nowrap; background-color: rgb(255, 255, 255); text-decoration-thickness: initial; text-decoration-style: initial; text-decoration-color: initial; display: inline !important; float: none;&quot;&gt;&amp;lt;&amp;lt;extends&amp;gt;&amp;gt;&lt;/span&gt;" style="html=1;whiteSpace=wrap;fillColor=none;strokeColor=none;rotation=0;" vertex="1" parent="wU0Vz7uHyIaqZFEzCgcS-1">
          <mxGeometry x="596" y="38" width="60" height="15" as="geometry" />
        </mxCell>
      </root>
    </mxGraphModel>
  </diagram>
</mxfile>
